<svg height="512" viewBox="0 0 128 128" width="512" xmlns="http://www.w3.org/2000/svg"><g><g fill="#ffa300"><path d="m106.12 48.681-4.24 4.24a53.5 53.5 0 0 0 -75.76 0l-4.24-4.24a59.486 59.486 0 0 1 84.24 0z"/><path d="m95.51 59.291-4.24 4.24a38.472 38.472 0 0 0 -54.54 0l-4.24-4.24a44.455 44.455 0 0 1 63.02 0z"/><path d="m84.91 69.891-4.24 4.24a23.508 23.508 0 0 0 -33.34 0l-4.24-4.24a29.51 29.51 0 0 1 41.82 0z"/><circle cx="64" cy="90.799" r="6"/></g><path d="m106.72 25.52c-.66-.74-1.35-1.47-2.06-2.18s-1.44-1.4-2.18-2.06a57.495 57.495 0 0 0 -81.2 81.2 53.009 53.009 0 0 0 4.24 4.24 57.495 57.495 0 0 0 81.2-81.2zm-94.22 38.48a51.493 51.493 0 0 1 85.73-38.47l-72.7 72.7a51.362 51.362 0 0 1 -13.03-34.23zm87.92 36.42a51.5 51.5 0 0 1 -70.65 2.05l72.69-72.69a51.472 51.472 0 0 1 -2.04 70.64z" fill="#f4d844"/></g></svg>